<svg xmlns="http://www.w3.org/2000/svg" viewBox="0 0 48 48" xmlns:xlink="http://www.w3.org/1999/xlink" xml:space="preserve" width="100%" height="100%"><g xmlns="http://www.w3.org/2000/svg" fill="none" transform="scale(2)"><circle cx="7" cy="6" r="3" stroke="#000" stroke-width="2"></circle><path stroke="#000" stroke-linecap="round" stroke-linejoin="round" stroke-width="2" d="M10 13H5.818a3 3 0 0 0-2.964 2.537L2.36 18.69A2 2 0 0 0 4.337 21H9m12.64-2.309-.494-3.154A3 3 0 0 0 18.182 13h-2.364a3 3 0 0 0-2.964 2.537l-.493 3.154A2 2 0 0 0 14.337 21h5.326a2 2 0 0 0 1.976-2.309"></path><circle cx="17" cy="6" r="3" stroke="#000" stroke-width="2"></circle></g></svg>