<svg width="496" height="465" viewBox="0 0 496 465" fill="none" xmlns="http://www.w3.org/2000/svg">
<path d="M130.349 162.667C169.193 162.667 200.682 131.177 200.682 92.3333C200.682 53.4893 169.193 22 130.349 22C91.5049 22 60.0156 53.4893 60.0156 92.3333C60.0156 131.177 91.5049 162.667 130.349 162.667Z" stroke="black" stroke-width="40"/>
<path d="M200.682 256.444H102.638C85.8655 256.445 69.6456 262.439 56.9037 273.345C44.1618 284.251 35.7367 299.352 33.1482 315.923L21.5667 389.843C20.5166 396.536 20.9293 403.376 22.7762 409.894C24.6231 416.412 27.8604 422.452 32.2653 427.599C36.6702 432.746 42.1381 436.877 48.2926 439.709C54.447 442.54 61.1419 444.004 67.9163 444H177.238M473.576 389.867L461.994 315.923C459.405 299.352 450.98 284.251 438.239 273.345C425.497 262.439 409.277 256.445 392.505 256.444H337.082C320.31 256.445 304.09 262.439 291.348 273.345C278.606 284.251 270.181 299.352 267.593 315.923L256.035 389.867C254.989 396.556 255.403 403.392 257.251 409.905C259.098 416.418 262.334 422.454 266.736 427.598C271.138 432.742 276.601 436.871 282.751 439.702C288.901 442.534 295.591 444 302.361 444H427.226C433.996 444 440.686 442.534 446.836 439.702C452.985 436.871 458.449 432.742 462.851 427.598C467.253 422.454 470.489 416.418 472.336 409.905C474.183 403.392 474.622 396.556 473.576 389.867Z" stroke="black" stroke-width="40" stroke-linecap="round" stroke-linejoin="round"/>
<path d="M364.794 162.667C403.638 162.667 435.128 131.177 435.128 92.3333C435.128 53.4893 403.638 22 364.794 22C325.95 22 294.461 53.4893 294.461 92.3333C294.461 131.177 325.95 162.667 364.794 162.667Z" stroke="black" stroke-width="40"/>
</svg>
