<svg width="421" height="466" viewBox="0 0 421 466" fill="none" xmlns="http://www.w3.org/2000/svg">
<path d="M321.5 24H68.2C42.87 24 23.5 43.4187 23.5 68.8125C23.5 94.2063 42.87 113.625 68.2 113.625H321.5V263" stroke="black" stroke-width="30" stroke-miterlimit="10" stroke-linecap="round" stroke-linejoin="round"/>
<path d="M202.5 412H68.25C42.8917 412 23.5 392.613 23.5 367.261V69" stroke="black" stroke-width="30" stroke-miterlimit="10" stroke-linecap="round" stroke-linejoin="round"/>
<path d="M321.5 69H68.5" stroke="black" stroke-width="30" stroke-miterlimit="10" stroke-linecap="round" stroke-linejoin="round"/>
<path d="M82.5 113V412" stroke="black" stroke-width="30" stroke-miterlimit="10" stroke-linecap="round" stroke-linejoin="round"/>
<path d="M314.234 255.337C342.589 283.786 342.589 331.7 314.234 360.149C306.772 367.636 299.31 372.128 290.355 376.619C263.492 387.101 232.152 382.609 209.766 360.149C181.411 331.7 181.411 283.786 209.766 255.337C238.122 226.888 285.878 226.888 314.234 255.337Z" stroke="black" stroke-width="30" stroke-miterlimit="10" stroke-linecap="round" stroke-linejoin="round"/>
<path d="M329.326 338L387.543 391.486C399.486 403.371 399.486 421.2 387.543 433.086C375.601 444.971 357.688 444.971 345.746 433.086L293.5 381.086" stroke="black" stroke-width="30" stroke-miterlimit="10" stroke-linecap="round" stroke-linejoin="round"/>
</svg>
