<svg width="579" height="466" viewBox="0 0 579 466" fill="none" xmlns="http://www.w3.org/2000/svg">
<path fill-rule="evenodd" clip-rule="evenodd" d="M541.07 13.0082C537.286 6.0547 529.923 1.80571 522.004 2.00684C459.222 3.59984 317.719 39.506 237.765 170.744C151.322 116.212 57.2611 123.937 22.7316 133.955C15.7936 135.966 10.3685 141.389 8.35429 148.325C-4.81045 193.64 -12.4911 303.83 66.0193 382.291C103.094 419.342 141.402 434.31 176.147 434.897C203.459 435.356 227.306 426.894 245.149 415.172C256.692 427.332 268.898 436.651 279.936 443.018C305.618 457.834 348.299 470.142 395.339 460.685C443.324 451.037 493.229 419.27 532.986 350.452C612.105 213.504 571.605 69.106 541.07 13.0082ZM219.985 381.199C214.927 372.256 210.475 362.507 206.923 351.97C193.652 312.617 193.503 264.098 218.087 208.229C152.239 165.389 80.2329 165.87 46.0283 171.857C37.5115 214.533 38.5203 295.178 95.8537 352.476C126.347 382.949 154.589 392.36 176.858 392.736C194.078 393.027 208.961 387.946 219.985 381.199ZM270.16 198.805C334.461 87.5098 449.792 50.8843 509.878 45.0001C534.817 99.9426 560.749 218.075 496.448 329.37C461.948 389.088 421.638 412.385 387.019 419.346C369.307 422.909 352.401 422.331 337.654 419.557L451.847 210.342C457.425 200.121 453.657 187.315 443.425 181.741C433.198 176.163 420.384 179.932 414.807 190.153L355.08 299.584L347.852 277.916C344.169 266.868 332.22 260.898 321.166 264.583C310.112 268.264 304.141 280.205 307.825 291.248L327.474 350.157L297.792 404.538C280.096 393.296 257.815 370.848 246.904 338.503C235.626 305.062 235.66 258.524 270.16 198.805Z" fill="black"/>
</svg>
