<svg width="284" height="465" viewBox="0 0 284 465" fill="none" xmlns="http://www.w3.org/2000/svg">
<g clip-path="url(#clip0_130_25784)">
<path d="M109.727 45.2017C109.727 34.4663 118.36 25.8296 129.091 25.8296C139.822 25.8296 148.455 34.4663 148.455 45.2017C148.455 55.9371 139.822 64.5739 129.091 64.5739C118.36 64.5739 109.727 55.9371 109.727 45.2017ZM174.273 45.2017C174.273 20.2601 154.022 0 129.091 0C104.16 0 83.9091 20.2601 83.9091 45.2017C83.9091 70.1434 104.16 90.4034 129.091 90.4034C154.022 90.4034 174.273 70.1434 174.273 45.2017ZM116.827 142.063C125.541 142.063 134.012 143.515 142 146.341V289.049L111.744 273.955C98.5932 267.417 90.3636 253.937 90.3636 239.327V146.825C98.7545 143.677 107.71 142.063 116.827 142.063ZM60.5114 167.004C61.8023 165.551 63.1739 164.179 64.5455 162.888V239.327C64.5455 263.784 78.3421 286.143 100.207 297.121L175.644 334.816C187.424 340.708 195.331 352.089 196.783 365.165L206.626 453.47C207.433 460.573 213.807 465.658 220.907 464.851C228.007 464.044 233.09 457.667 232.283 450.564L222.44 362.259C220.019 340.466 206.707 321.417 187.182 311.65L167.818 301.964V161.677C171.449 164.906 174.757 168.538 177.742 172.574L193.636 193.722C205.819 209.946 224.941 219.551 245.273 219.551H271.091C278.191 219.551 284 213.74 284 206.636C284 199.533 278.191 193.722 271.091 193.722H245.273C233.09 193.722 221.633 187.991 214.291 178.224L198.397 156.995C179.114 131.327 148.939 116.233 116.827 116.233C88.1045 116.233 60.6727 128.341 41.3898 149.65L16.7818 176.69C5.97046 188.636 0 204.053 0 220.116V271.21C0 278.313 5.80909 284.125 12.9091 284.125C20.0091 284.125 25.8182 278.313 25.8182 271.21V220.116C25.8182 210.511 29.4489 201.148 35.9034 194.045L60.5114 167.004ZM81.3273 347.892C79.7136 352.654 77.2125 357.013 73.9852 360.887L3.14659 443.623C-1.53296 449.031 -0.887495 457.183 4.51819 461.865C9.92387 466.546 18.0727 465.901 22.7523 460.493L93.5909 377.677C98.9966 371.3 103.192 364.035 105.855 356.044L109.566 344.905L86.2489 333.201L81.4079 347.811L81.3273 347.892Z" fill="black"/>
</g>
<defs>
<clipPath id="clip0_130_25784">
<rect width="284" height="465" fill="white"/>
</clipPath>
</defs>
</svg>
