<svg width="522" height="466" viewBox="0 0 522 466" fill="none" xmlns="http://www.w3.org/2000/svg">
<path fill-rule="evenodd" clip-rule="evenodd" d="M30.2812 113.437C27.3593 111.206 24.7297 108.85 22.4645 106.391C-0.689361 81.2442 -6.96827 47.2472 8.44009 30.4577C16.0788 22.1343 27.6133 19.6022 40.1246 22.2285C48.288 23.9425 56.8673 27.8519 65.0518 33.7826C68.6236 24.5545 73.7582 16.6851 79.9626 10.8689C87.2774 4.01087 96.0752 0.0076797 105.546 1.13046e-05C115.961 -0.00852521 125.574 4.81808 133.297 12.9639C137.949 17.8698 141.915 23.9801 144.959 30.9627C151.718 26.6568 158.653 23.7153 165.324 22.2333C178.023 19.4128 189.766 21.8816 197.52 30.3029C212.956 47.0677 206.732 81.0735 183.62 106.259C181.361 108.72 178.726 111.079 175.805 113.313C191.287 121.13 200.925 138.326 197.736 156.685L151.528 422.706C147.486 445.973 127.145 462.98 103.335 463C79.5248 463.019 59.1547 446.044 55.0756 422.784L8.43052 156.84C5.21221 138.491 14.8184 121.282 30.2812 113.437ZM119.748 41.7693L132.585 71.2174L159.807 53.8753C166.352 49.7054 171.683 48.4263 174.788 48.3555C176.251 48.3222 176.972 48.5551 177.154 48.6246C177.209 48.6463 177.233 48.6564 177.233 48.6564C177.267 48.694 177.815 49.2945 178.201 51.1638C178.607 53.1301 178.747 56.1816 178.001 60.2603C176.486 68.5349 171.718 78.7614 163.306 87.9287C158.906 92.7222 149.543 98.6225 137.023 103.167C126.051 107.149 116.016 108.874 109.657 108.937H108.996C108.394 108.933 107.829 108.911 107.303 108.875L105.537 108.752L103.77 108.855C102.794 108.911 101.781 108.942 100.736 108.944H100.415C91.4538 108.929 80.1917 106.984 69.1339 103.124C56.3607 98.6659 47.1569 92.8148 42.749 88.0271C34.3214 78.8742 29.5364 68.655 28.0087 60.3833C27.2555 56.306 27.3899 53.2546 27.7926 51.2868C28.1756 49.4175 28.7192 48.8257 28.7538 48.7881C28.7538 48.7881 28.7815 48.7649 28.8843 48.7287C29.1531 48.6333 30.0687 48.3829 31.843 48.503C35.582 48.7548 41.7168 50.6068 48.8458 55.7721L77.8317 76.7748L90.6942 43.5403C93.2441 36.9541 96.6058 32.5253 99.5499 30.0164C102.359 27.6233 104.383 27.2355 105.567 27.2355C107.274 27.2341 114.145 28.9153 119.748 41.7693ZM157.123 136.134L49.01 136.222C40.489 136.229 34.0309 143.849 35.491 152.173L42.248 190.698L82.511 190.665C90.0955 190.659 96.2492 196.75 96.2564 204.271C96.2622 211.792 90.1187 217.894 82.5342 217.899L47.0242 217.93L63.7413 313.238L68.8788 313.235C76.4632 313.228 82.6169 319.32 82.6227 326.841C82.6299 334.362 76.4864 340.463 68.9005 340.469H68.5164L82.1356 418.118C83.9259 428.324 92.8643 435.773 103.313 435.764C113.761 435.755 122.686 428.293 124.46 418.083L149.781 272.316L110.045 272.348C102.461 272.354 96.3071 266.262 96.2999 258.741C96.2941 251.221 102.438 245.119 110.022 245.112L151.223 245.079C152.332 245.079 153.412 245.207 154.446 245.453L170.669 152.063C172.115 143.736 165.644 136.127 157.123 136.134Z" fill="black"/>
<path d="M464.525 283.933C463.587 276.46 456.784 271.165 449.332 272.109C441.881 273.051 436.603 279.873 437.543 287.347C438.371 293.939 437.466 305.381 431.542 316.202C425.892 326.528 415.314 337.006 395.24 342.143C387.963 344.007 383.569 351.432 385.425 358.731C387.282 366.03 394.686 370.436 401.963 368.573C429.323 361.572 446.105 346.282 455.383 329.328C464.39 312.869 465.984 295.523 464.525 283.933Z" fill="black"/>
<path fill-rule="evenodd" clip-rule="evenodd" d="M386.191 112.312C392.112 107.595 393.066 99.0016 388.321 93.1168C383.577 87.2321 374.931 86.2832 369.01 91C350.961 105.375 343.448 129.162 341.622 152.141C340.617 164.774 341.248 178.002 343.217 190.842L340.141 189.011C326.727 181.026 311.38 176.814 295.745 176.827C269.536 176.848 244.757 188.711 228.402 209.065L227.667 209.981C223.768 214.834 220.395 220.083 217.605 225.64L215.481 229.868C209.536 241.713 205.406 254.373 203.226 267.433L202.952 269.079C195.665 312.751 209.009 357.323 239.131 389.932L246.921 398.364C264.662 417.569 287.037 431.965 311.93 440.19C345.917 451.42 382.898 450.496 416.289 437.699C446.216 426.23 471.965 405.771 489.75 379.208L496.315 369.405C513.087 344.352 522.025 314.927 522 284.836L521.994 278.417C521.987 268.513 520.589 258.659 517.844 249.138L516.154 243.275C509.745 221.049 495.078 202.076 475.122 190.198C444.724 172.103 406.556 173.037 377.09 192.596L372.074 195.926C369.136 182.294 367.944 167.743 369.013 154.292C370.587 134.484 376.78 119.807 386.191 112.312ZM355.968 228.849C359.479 231.338 364.11 232.149 368.489 230.628C370.332 229.987 371.951 228.996 373.296 227.755C374.104 227.352 374.892 226.897 375.654 226.39L392.349 215.308C412.986 201.609 439.715 200.955 461.005 213.628C474.98 221.948 485.253 235.235 489.74 250.8L491.431 256.663C493.473 263.744 494.512 271.073 494.518 278.439L494.522 284.859C494.543 309.557 487.208 333.712 473.44 354.273L466.875 364.079C452.255 385.916 431.053 402.771 406.405 412.217C378.932 422.746 348.51 423.496 320.598 414.275C300.134 407.513 281.744 395.68 267.161 379.893L259.371 371.461C234.966 345.042 224.155 308.929 230.058 273.547L230.333 271.9C232.064 261.528 235.344 251.47 240.067 242.061L242.191 237.835C244.116 233.997 246.445 230.374 249.137 227.024L249.872 226.109C261.018 212.237 277.905 204.153 295.767 204.138C306.424 204.129 316.882 206.999 326.024 212.441L343.603 222.905L353.438 227.783C354.265 228.194 355.11 228.549 355.968 228.849Z" fill="black"/>
<path d="M385 163C384.97 125.476 415.414 95.0303 453 95C453.03 132.525 422.586 162.97 385 163Z" fill="black"/>
</svg>
