<svg width="338" height="465" viewBox="0 0 338 465" fill="none" xmlns="http://www.w3.org/2000/svg">
<path d="M169.5 147C204.57 147 233 118.57 233 83.5C233 48.4299 204.57 20 169.5 20C134.43 20 106 48.4299 106 83.5C106 118.57 134.43 147 169.5 147Z" stroke="black" stroke-width="40"/>
<path d="M202.379 218.775L169 252.047L135.621 218.775C109.17 192.408 66.2886 192.408 39.838 218.775C13.3873 245.141 13.3873 287.885 39.838 314.251L169 443L298.162 314.251C324.613 287.885 324.613 245.141 298.162 218.775C271.711 192.408 228.83 192.408 202.379 218.775Z" stroke="black" stroke-width="40" stroke-linejoin="round"/>
</svg>
