<svg width="800" height="465" viewBox="0 0 800 465" fill="none" xmlns="http://www.w3.org/2000/svg">
<path d="M366.666 57.6663L314.076 31.3713C304.819 26.7427 294.611 24.333 284.261 24.333H260.947C243.266 24.333 226.309 31.3567 213.806 43.8593L186.192 71.4733C173.69 83.976 166.666 100.933 166.666 118.614V288.653C166.666 310.943 177.806 331.76 196.353 344.123L325.248 430.053C349.813 446.433 382.226 444.7 404.906 425.8L566.666 291" stroke="black" stroke-width="40" stroke-linecap="round" stroke-linejoin="round"/>
<path d="M481.831 221.473C461.717 194.54 424.701 186.796 395.477 203.403L333.634 238.553C313.767 249.843 288.805 246.47 272.646 230.313C251.536 209.2 253.109 174.52 276.044 155.41L414.791 39.785C426.774 29.8007 441.874 24.333 457.471 24.333H484.264C494.614 24.333 504.821 26.7427 514.077 31.3713L596.481 72.5733C619.067 83.8663 633.334 106.95 633.334 132.203V223.653C633.334 287.79 551.631 314.933 513.254 263.546L481.831 221.473Z" stroke="black" stroke-width="40" stroke-linecap="round" stroke-linejoin="round"/>
<path d="M33.334 357.667V57.667" stroke="black" stroke-width="40" stroke-linecap="round" stroke-linejoin="round"/>
<path d="M766.666 357.667V57.667" stroke="black" stroke-width="40" stroke-linecap="round" stroke-linejoin="round"/>
</svg>
